<svg width="425" height="365" viewBox="0 0 425 365" fill="none" xmlns="http://www.w3.org/2000/svg">
<g clip-path="url(#clip0_10_53)">
<path d="M2.5 5C3.88071 5 5 3.88071 5 2.5C5 1.11929 3.88071 0 2.5 0C1.11929 0 0 1.11929 0 2.5C0 3.88071 1.11929 5 2.5 5Z" fill="#FB0000"/>
<path d="M72.5 5C73.8807 5 75 3.88071 75 2.5C75 1.11929 73.8807 0 72.5 0C71.1193 0 70 1.11929 70 2.5C70 3.88071 71.1193 5 72.5 5Z" fill="#FB0000"/>
<path d="M142.5 5C143.881 5 145 3.88071 145 2.5C145 1.11929 143.881 0 142.5 0C141.119 0 140 1.11929 140 2.5C140 3.88071 141.119 5 142.5 5Z" fill="#FB0000"/>
<path d="M212.5 5C213.881 5 215 3.88071 215 2.5C215 1.11929 213.881 0 212.5 0C211.119 0 210 1.11929 210 2.5C210 3.88071 211.119 5 212.5 5Z" fill="#FB0000"/>
<path d="M282.5 5C283.881 5 285 3.88071 285 2.5C285 1.11929 283.881 0 282.5 0C281.119 0 280 1.11929 280 2.5C280 3.88071 281.119 5 282.5 5Z" fill="#FB0000"/>
<path d="M352.5 5C353.881 5 355 3.88071 355 2.5C355 1.11929 353.881 0 352.5 0C351.119 0 350 1.11929 350 2.5C350 3.88071 351.119 5 352.5 5Z" fill="#FB0000"/>
<path d="M422.5 5C423.881 5 425 3.88071 425 2.5C425 1.11929 423.881 0 422.5 0C421.119 0 420 1.11929 420 2.5C420 3.88071 421.119 5 422.5 5Z" fill="#FB0000"/>
<path d="M2.5 65C3.88071 65 5 63.8807 5 62.5C5 61.1193 3.88071 60 2.5 60C1.11929 60 0 61.1193 0 62.5C0 63.8807 1.11929 65 2.5 65Z" fill="#FB0000"/>
<path d="M72.5 65C73.8807 65 75 63.8807 75 62.5C75 61.1193 73.8807 60 72.5 60C71.1193 60 70 61.1193 70 62.5C70 63.8807 71.1193 65 72.5 65Z" fill="#FB0000"/>
<path d="M142.5 65C143.881 65 145 63.8807 145 62.5C145 61.1193 143.881 60 142.5 60C141.119 60 140 61.1193 140 62.5C140 63.8807 141.119 65 142.5 65Z" fill="#FB0000"/>
<path d="M212.5 65C213.881 65 215 63.8807 215 62.5C215 61.1193 213.881 60 212.5 60C211.119 60 210 61.1193 210 62.5C210 63.8807 211.119 65 212.5 65Z" fill="#FB0000"/>
<path d="M282.5 65C283.881 65 285 63.8807 285 62.5C285 61.1193 283.881 60 282.5 60C281.119 60 280 61.1193 280 62.5C280 63.8807 281.119 65 282.5 65Z" fill="#FB0000"/>
<path d="M352.5 65C353.881 65 355 63.8807 355 62.5C355 61.1193 353.881 60 352.5 60C351.119 60 350 61.1193 350 62.5C350 63.8807 351.119 65 352.5 65Z" fill="#FB0000"/>
<path d="M422.5 65C423.881 65 425 63.8807 425 62.5C425 61.1193 423.881 60 422.5 60C421.119 60 420 61.1193 420 62.5C420 63.8807 421.119 65 422.5 65Z" fill="#FB0000"/>
<path d="M2.5 125C3.88071 125 5 123.881 5 122.5C5 121.119 3.88071 120 2.5 120C1.11929 120 0 121.119 0 122.5C0 123.881 1.11929 125 2.5 125Z" fill="#FB0000"/>
<path d="M72.5 125C73.8807 125 75 123.881 75 122.5C75 121.119 73.8807 120 72.5 120C71.1193 120 70 121.119 70 122.5C70 123.881 71.1193 125 72.5 125Z" fill="#FB0000"/>
<path d="M142.5 125C143.881 125 145 123.881 145 122.5C145 121.119 143.881 120 142.5 120C141.119 120 140 121.119 140 122.5C140 123.881 141.119 125 142.5 125Z" fill="#FB0000"/>
<path d="M212.5 125C213.881 125 215 123.881 215 122.5C215 121.119 213.881 120 212.5 120C211.119 120 210 121.119 210 122.5C210 123.881 211.119 125 212.5 125Z" fill="#FB0000"/>
<path d="M282.5 125C283.881 125 285 123.881 285 122.5C285 121.119 283.881 120 282.5 120C281.119 120 280 121.119 280 122.5C280 123.881 281.119 125 282.5 125Z" fill="#FB0000"/>
<path d="M352.5 125C353.881 125 355 123.881 355 122.5C355 121.119 353.881 120 352.5 120C351.119 120 350 121.119 350 122.5C350 123.881 351.119 125 352.5 125Z" fill="#FB0000"/>
<path d="M422.5 125C423.881 125 425 123.881 425 122.5C425 121.119 423.881 120 422.5 120C421.119 120 420 121.119 420 122.5C420 123.881 421.119 125 422.5 125Z" fill="#FB0000"/>
<path d="M2.5 185C3.88071 185 5 183.881 5 182.5C5 181.119 3.88071 180 2.5 180C1.11929 180 0 181.119 0 182.5C0 183.881 1.11929 185 2.5 185Z" fill="#FB0000"/>
<path d="M72.5 185C73.8807 185 75 183.881 75 182.5C75 181.119 73.8807 180 72.5 180C71.1193 180 70 181.119 70 182.5C70 183.881 71.1193 185 72.5 185Z" fill="#FB0000"/>
<path d="M142.5 185C143.881 185 145 183.881 145 182.5C145 181.119 143.881 180 142.5 180C141.119 180 140 181.119 140 182.5C140 183.881 141.119 185 142.5 185Z" fill="#FB0000"/>
<path d="M212.5 185C213.881 185 215 183.881 215 182.5C215 181.119 213.881 180 212.5 180C211.119 180 210 181.119 210 182.5C210 183.881 211.119 185 212.5 185Z" fill="#FB0000"/>
<path d="M282.5 185C283.881 185 285 183.881 285 182.5C285 181.119 283.881 180 282.5 180C281.119 180 280 181.119 280 182.5C280 183.881 281.119 185 282.5 185Z" fill="#FB0000"/>
<path d="M352.5 185C353.881 185 355 183.881 355 182.5C355 181.119 353.881 180 352.5 180C351.119 180 350 181.119 350 182.5C350 183.881 351.119 185 352.5 185Z" fill="#FB0000"/>
<path d="M422.5 185C423.881 185 425 183.881 425 182.5C425 181.119 423.881 180 422.5 180C421.119 180 420 181.119 420 182.5C420 183.881 421.119 185 422.5 185Z" fill="#FB0000"/>
<path d="M2.5 245C3.88071 245 5 243.881 5 242.5C5 241.119 3.88071 240 2.5 240C1.11929 240 0 241.119 0 242.5C0 243.881 1.11929 245 2.5 245Z" fill="#FB0000"/>
<path d="M72.5 245C73.8807 245 75 243.881 75 242.5C75 241.119 73.8807 240 72.5 240C71.1193 240 70 241.119 70 242.5C70 243.881 71.1193 245 72.5 245Z" fill="#FB0000"/>
<path d="M142.5 245C143.881 245 145 243.881 145 242.5C145 241.119 143.881 240 142.5 240C141.119 240 140 241.119 140 242.5C140 243.881 141.119 245 142.5 245Z" fill="#FB0000"/>
<path d="M212.5 245C213.881 245 215 243.881 215 242.5C215 241.119 213.881 240 212.5 240C211.119 240 210 241.119 210 242.5C210 243.881 211.119 245 212.5 245Z" fill="#FB0000"/>
<path d="M282.5 245C283.881 245 285 243.881 285 242.5C285 241.119 283.881 240 282.5 240C281.119 240 280 241.119 280 242.5C280 243.881 281.119 245 282.5 245Z" fill="#FB0000"/>
<path d="M352.5 245C353.881 245 355 243.881 355 242.5C355 241.119 353.881 240 352.5 240C351.119 240 350 241.119 350 242.5C350 243.881 351.119 245 352.5 245Z" fill="#FB0000"/>
<path d="M422.5 245C423.881 245 425 243.881 425 242.5C425 241.119 423.881 240 422.5 240C421.119 240 420 241.119 420 242.5C420 243.881 421.119 245 422.5 245Z" fill="#FB0000"/>
<path d="M2.5 305C3.88071 305 5 303.881 5 302.5C5 301.119 3.88071 300 2.5 300C1.11929 300 0 301.119 0 302.5C0 303.881 1.11929 305 2.5 305Z" fill="#FB0000"/>
<path d="M72.5 305C73.8807 305 75 303.881 75 302.5C75 301.119 73.8807 300 72.5 300C71.1193 300 70 301.119 70 302.5C70 303.881 71.1193 305 72.5 305Z" fill="#FB0000"/>
<path d="M142.5 305C143.881 305 145 303.881 145 302.5C145 301.119 143.881 300 142.5 300C141.119 300 140 301.119 140 302.5C140 303.881 141.119 305 142.5 305Z" fill="#FB0000"/>
<path d="M212.5 305C213.881 305 215 303.881 215 302.5C215 301.119 213.881 300 212.5 300C211.119 300 210 301.119 210 302.5C210 303.881 211.119 305 212.5 305Z" fill="#FB0000"/>
<path d="M282.5 305C283.881 305 285 303.881 285 302.5C285 301.119 283.881 300 282.5 300C281.119 300 280 301.119 280 302.5C280 303.881 281.119 305 282.5 305Z" fill="#FB0000"/>
<path d="M352.5 305C353.881 305 355 303.881 355 302.5C355 301.119 353.881 300 352.5 300C351.119 300 350 301.119 350 302.5C350 303.881 351.119 305 352.5 305Z" fill="#FB0000"/>
<path d="M422.5 305C423.881 305 425 303.881 425 302.5C425 301.119 423.881 300 422.5 300C421.119 300 420 301.119 420 302.5C420 303.881 421.119 305 422.5 305Z" fill="#FB0000"/>
<path d="M2.5 365C3.88071 365 5 363.881 5 362.5C5 361.119 3.88071 360 2.5 360C1.11929 360 0 361.119 0 362.5C0 363.881 1.11929 365 2.5 365Z" fill="#FB0000"/>
<path d="M72.5 365C73.8807 365 75 363.881 75 362.5C75 361.119 73.8807 360 72.5 360C71.1193 360 70 361.119 70 362.5C70 363.881 71.1193 365 72.5 365Z" fill="#FB0000"/>
<path d="M142.5 365C143.881 365 145 363.881 145 362.5C145 361.119 143.881 360 142.5 360C141.119 360 140 361.119 140 362.5C140 363.881 141.119 365 142.5 365Z" fill="#FB0000"/>
<path d="M212.5 365C213.881 365 215 363.881 215 362.5C215 361.119 213.881 360 212.5 360C211.119 360 210 361.119 210 362.5C210 363.881 211.119 365 212.5 365Z" fill="#FB0000"/>
<path d="M282.5 365C283.881 365 285 363.881 285 362.5C285 361.119 283.881 360 282.5 360C281.119 360 280 361.119 280 362.5C280 363.881 281.119 365 282.5 365Z" fill="#FB0000"/>
<path d="M352.5 365C353.881 365 355 363.881 355 362.5C355 361.119 353.881 360 352.5 360C351.119 360 350 361.119 350 362.5C350 363.881 351.119 365 352.5 365Z" fill="#FB0000"/>
<path d="M422.5 365C423.881 365 425 363.881 425 362.5C425 361.119 423.881 360 422.5 360C421.119 360 420 361.119 420 362.5C420 363.881 421.119 365 422.5 365Z" fill="#FB0000"/>
</g>
<defs>
<clipPath id="clip0_10_53">
<rect width="425" height="365" fill="white"/>
</clipPath>
</defs>
</svg>
